<?xml version="1.0" encoding="UTF-8"?>
<!DOCTYPE svg PUBLIC "-//W3C//DTD SVG 1.1//EN" "http://www.w3.org/Graphics/SVG/1.1/DTD/svg11.dtd">
<svg xmlns="http://www.w3.org/2000/svg" version="1.1" width="1465px" height="1502px" style="shape-rendering:geometricPrecision; text-rendering:geometricPrecision; image-rendering:optimizeQuality; fill-rule:evenodd; clip-rule:evenodd" xmlns:xlink="http://www.w3.org/1999/xlink">
<g><path fill="#31b077" stroke="#31b077" stroke-width="0.5" d="M 1090.02,535 c 53,0 105.99,0 158.99,0 c -2.62,8.3 -14.43,10.26 -18.19,19.25 c -4.97,12.29 -7.63,15.32 -18.33,23.12 c -0.64,0.56 -1.36,0.97 -2.16,1.23 c 3.99,-2.19 4.74,-1.23 8.33,0.92 c -2.76,7.48 -14.61,10.36 -18.49,19.18 c -5.17,10.85 -7.89,15.16 -17.71,22.29 c -4.64,4.68 -9.88,9.28 -12.59,15.41 c -119.39,284.63 -238.76,569.27 -358.12,853.91 c -3.48,7.78 -4.46,11.42 -13.9,10.95 c -5.63,-0.61 -10.36,-1.92 -15.84,-3.73 c -27.7,-10.51 -43.34,-33.41 -43.61,-63.03 c -0.23,-11.16 -0.36,-22.33 -0.39,-33.49 c -0.01,-2.67 -0.01,-5.33 -0.02,-8 c 0.08,-7.83 0.03,-15.67 -0.15,-23.53 c 0.1,-0.62 -0.09,-1.11 -0.56,-1.45 c -0.11,-11.01 -0.2,-22.02 -0.27,-33.03 c 0,-4 -0.01,-7.99 -0.03,-11.99 c 0.07,-6.16 0.04,-12.34 -0.1,-18.54 c 0.1,-0.6 -0.07,-1.07 -0.5,-1.4 c -0.2,-12.68 -0.33,-25.35 -0.41,-38.03 c 0.09,-6.02 0.05,-12.05 -0.12,-18.09 c 0.19,-5.14 0.21,-10.3 0.05,-15.47 c 0.07,-0.63 -0.11,-1.17 -0.53,-1.61 c -0.24,-10.61 -0.36,-21.23 -0.38,-31.84 c -0.21,-0.83 -0.33,-1.66 -0.36,-2.52 c 0.46,-7.87 0.49,-15.76 0.12,-23.65 c -0.3,-3.62 -0.45,-7.25 -0.45,-10.88 c 0.47,1.57 0.89,3.14 1.27,4.7 c 0.6,-0.67 1.04,-1.44 1.33,-2.32 c 53.7,-128.24 107.44,-256.46 161.21,-384.67 c 5.68,-8.41 12.04,-13.96 20.27,-19.73 c 4.04,-3.06 5.31,-9.26 7.49,-13.6 c 1.89,-3.4 3.83,-6.78 5.8,-10.13 c 2.8,-5.21 3.61,-11.64 8.92,-15.11 c 7.34,-4.29 13.32,-6.99 16.6,-15.49 c 3.06,-5.88 4.11,-14.32 9.42,-18.61 c 6.94,-4.58 12.99,-10.14 18.15,-16.67 c 2.1,-3.43 4.01,-6.96 5.72,-10.59 c 2.24,-2.64 4.63,-5.13 7.19,-7.46 c 4.11,-4.15 5.5,-11.9 8.04,-17.1 c 2.63,-6.44 7.61,-8.52 13.29,-11.65 c 6.01,-3.72 7.13,-10.34 9.57,-16.41 c 2.74,-7.22 8.46,-8.79 14.22,-12.82 c 5.27,-4.18 6.08,-10.59 8.64,-16.39 c 2.57,-6.32 8.38,-7.94 13.51,-11.5 c 5.48,-4.17 6.38,-11.08 9.03,-16.98 c 3.17,-6.85 9.04,-8.69 15.33,-11.76 c 0.58,-0.41 0.82,-0.97 0.72,-1.69 Z"/></g>
<g><path fill="#3ac688" stroke="#3ac688" stroke-width="0.5" d="M 1312.02,535 c 39.82,-1.48 69.71,3.33 101.97,28.01 c -0.7,-0.12 -1.35,0 -1.96,0.36 c -1.58,2.9 -3.02,5.87 -4.29,8.92 c -59.97,143.01 -119.95,286.02 -179.93,429.03 c -1.28,3.06 -2.46,6.15 -3.55,9.28 c -0.07,0.72 0.22,1.24 0.87,1.56 c -89.33,112.33 -178.67,224.66 -268.01,336.98 c -0.58,-0.28 -0.82,-0.74 -0.72,-1.38 c 2.12,-5.75 4.37,-11.46 6.76,-17.11 c 105.17,-250.81 210.36,-501.6 315.59,-752.38 c 3.39,-8.47 11.95,-12.91 18.71,-18.36 c 5.34,-4.34 11.32,-18.55 14.56,-24.91 Z"/></g>
<g><path fill="#3ecf8e" stroke="#3ecf8e" stroke-width="0.5" d="M 663.98,0.66 c 22.91,3.11 38.24,10.96 51.65,30.36 c 13.67,20.81 9.75,43.46 10.37,66.97 c 0,6.34 0,12.67 -0.01,19.01 c -0.08,12.64 0.01,25.28 0.28,37.92 c -0.23,0.84 -0.34,1.7 -0.34,2.57 c 0.01,9.7 0.09,19.4 0.24,29.09 c -0.19,0.67 0.01,1.11 0.61,1.33 c 0.07,25.69 0.14,51.39 0.22,77.08 c 0.01,6 0,12.01 -0.01,18.01 c -0.08,11.34 0.01,22.68 0.27,34.01 c -0.23,0.81 -0.35,1.64 -0.34,2.48 c 0.03,6.33 0.07,12.67 0.09,19.01 c 0.25,4.98 0.34,9.96 0.3,14.95 c 0,0.31 0.13,0.5 0.4,0.6 c 0.16,24.65 0.26,49.3 0.28,73.95 c 0.01,12 0.01,24 0.01,36 c -0.07,11.98 0,23.96 0.21,35.93 c -0.23,5.53 -0.29,11.07 -0.18,16.61 c -0.13,0.68 0.09,1.16 0.67,1.43 c -0.1,5.66 0.03,11.3 0.39,16.92 c -0.63,61.88 0.57,123.48 0.8,185.13 c 0.23,62.61 0.82,124.52 1.06,187.01 c -0.09,16.29 0.06,32.58 0.44,48.87 c -0.12,2.88 -0.12,5.76 0,8.64 c -0.06,0.82 -0.22,1.62 -0.49,2.39 c -200.96,0.07 -401.93,0.09 -602.9,0.07 c -20.32,-0.06 -44.45,-6.85 -62.06,-17.24 c -37.32,-22.22 -59.88,-58.45 -65.18,-101.42 c -0.14,-1.38 -0.14,-2.76 0.01,-4.14 c 0.12,-6.8 0.1,-13.6 -0.06,-20.4 c -0.03,-2.09 0.17,-4.16 0.6,-6.22 c 4.47,-26.38 12.91,-43.76 28.73,-65.08 c 192.5,-241.81 385.01,-483.62 577.53,-725.42 c 14.17,-18.07 33.38,-27.39 56.41,-26.42 Z M 1413.99,563.01 c 57.52,47.12 67.29,128.96 19.68,187.01 c -69.44,87.44 -138.95,174.82 -208.54,262.14 c -0.65,-0.32 -0.94,-0.84 -0.87,-1.56 c 1.09,-3.13 2.27,-6.22 3.55,-9.28 c 59.98,-143.01 119.96,-286.02 179.93,-429.03 c 1.27,-3.05 2.71,-6.02 4.29,-8.92 c 0.61,-0.36 1.26,-0.48 1.96,-0.36 Z"/></g>
<g><path fill="#36bd80" stroke="#36bd80" stroke-width="0.5" d="M 1249.01,535 c 21,0 42.01,0 63.01,0 c -3.24,6.36 -9.22,20.57 -14.56,24.91 c -6.76,5.45 -15.32,9.89 -18.71,18.36 c -105.23,250.78 -210.42,501.57 -315.59,752.38 c -2.39,5.65 -4.64,11.36 -6.76,17.11 c -0.1,0.64 0.14,1.1 0.72,1.38 c -31.93,39.97 -63.78,80.01 -95.53,120.13 c -11.72,16.56 -29.29,30.24 -50.11,31.85 c -0.42,0.16 -0.58,0.45 -0.49,0.88 c -4.33,0 -8.66,0 -12.99,0 c -0.05,-0.25 -0.1,-0.49 -0.15,-0.74 c 9.44,0.47 10.42,-3.17 13.9,-10.95 c 119.36,-284.64 238.73,-569.28 358.12,-853.91 c 2.71,-6.13 7.95,-10.73 12.59,-15.41 c 9.82,-7.13 12.54,-11.44 17.71,-22.29 c 3.88,-8.82 15.73,-11.7 18.49,-19.18 c -3.59,-2.15 -4.34,-3.11 -8.33,-0.92 c 0.8,-0.26 1.52,-0.67 2.16,-1.23 c 10.7,-7.8 13.36,-10.83 18.33,-23.12 c 3.76,-8.99 15.57,-10.95 18.19,-19.25 Z"/></g>
<g><path fill="#259362" stroke="#259362" stroke-width="0.5" d="M 872.02,535 c 40.67,0 81.33,0 122,0 c -1.28,10.01 -9.68,10.99 -14.83,17.65 c -7.12,13.25 -8.15,18.25 -21.8,26.21 c -6.48,5.18 -7.18,14.81 -11.67,21.45 c -8.57,10.28 -17.61,16.29 -22.92,29.12 c -6.07,6.8 -10.15,10.7 -13.33,19.56 c -5.42,10.63 -20.31,17.57 -24.55,26.43 c -6.4,15.12 -6.84,20.08 -21.94,28.15 c -5.88,4.88 -14.71,28.42 -19.96,36.02 c -14.67,13.3 -22.26,17.01 -29.16,36.85 c -5.63,8.67 -13.04,14.55 -21.17,20.72 c -8.18,9.04 -12.36,29.72 -21.32,37.66 c -4.18,2.96 -9.54,5.27 -12.51,9.59 c -5.75,6.98 -26.08,61.67 -27.91,62.62 c -0.24,-62.49 -0.83,-124.4 -1.06,-187.01 c 10.15,-3.7 12.38,-12.39 16.41,-21.31 c 3.82,-10.2 14.86,-11.43 18.77,-20.17 c 5.08,-16.68 13.23,-21.4 23.98,-33.92 c 4.13,-5.25 4.59,-12.69 10.32,-16.72 c 13.02,-6.96 12.52,-11.15 18.13,-23.92 c 3.54,-9.62 14.43,-9.74 18.28,-18.68 c 7.04,-15.36 9.74,-23.3 23.66,-33.24 c 4.75,-6.82 4.9,-12.53 12.58,-17.06 Z"/></g>
<g><path fill="#218759" stroke="#218759" stroke-width="0.5" d="M 729.09,534.89 c 47.64,0.11 95.29,0.15 142.93,0.11 c -7.68,4.53 -7.83,10.24 -12.58,17.06 c -13.92,9.94 -16.62,17.88 -23.66,33.24 c -3.85,8.94 -14.74,9.06 -18.28,18.68 c -5.61,12.77 -5.11,16.96 -18.13,23.92 c -5.73,4.03 -6.19,11.47 -10.32,16.72 c -10.75,12.52 -18.9,17.24 -23.98,33.92 c -3.91,8.74 -14.95,9.97 -18.77,20.17 c -4.03,8.92 -6.26,17.61 -16.41,21.31 c -0.23,-61.65 -1.43,-123.25 -0.8,-185.13 Z"/></g>
<g><path fill="#3ecf8e" fill-opacity="0.247" d="M 128,967 c 200.97,0.02 401.94,0 602.9,-0.07 c 0.08,0.35 0.16,0.69 0.24,1.03 c -198.88,0.04 -397.76,0.05 -596.64,0.05 c -0.94,-0.33 -7.02,0.6 -6.5,-1.01 Z"/></g>
<g><path fill="#3ecf8e" fill-opacity="0.482" d="M 726.27,154.92 c 0.16,0 0.32,0.01 0.48,0.01 c 0.32,11 0.33,21.99 0.03,32.98 c -0.6,-0.22 -0.8,-0.66 -0.61,-1.33 c -0.15,-9.69 -0.23,-19.39 -0.24,-29.09 c 0,-0.87 0.11,-1.73 0.34,-2.57 Z M 727.26,317.01 c 0.18,0.01 0.35,0.01 0.52,0.01 c 0.16,9.16 0.25,18.32 0.27,27.48 c 0,3.19 -0.11,6.38 -0.34,9.55 c -0.27,-0.1 -0.4,-0.29 -0.4,-0.6 c 0.04,-4.99 -0.05,-9.97 -0.3,-14.95 c -0.02,-6.34 -0.06,-12.68 -0.09,-19.01 c -0.01,-0.84 0.11,-1.67 0.34,-2.48 Z"/></g>
<g><path fill="#3ecf8e" fill-opacity="0.271" d="M 725.99,117 c 0.25,0 0.51,0 0.76,-0.01 c 0.15,9.83 0.26,19.67 0.34,29.51 c -0.01,2.82 -0.12,5.63 -0.34,8.43 c -0.16,0 -0.32,-0.01 -0.48,-0.01 c -0.27,-12.64 -0.36,-25.28 -0.28,-37.92 Z"/></g>
<g><path fill="#3ecf8e" fill-opacity="0.106" d="M 726,97.99 c 0.76,0.14 1.1,0.63 1.02,1.46 c -0.12,5.02 -0.08,10.04 0.12,15.06 c 0.01,0.85 -0.12,1.68 -0.39,2.48 c -0.25,0.01 -0.51,0.01 -0.76,0.01 c 0.01,-6.34 0.01,-12.67 0.01,-19.01 Z M 727,264.99 c 0.74,0.12 1.09,0.58 1.05,1.38 c -0.11,4.71 -0.08,9.43 0.09,14.14 c 0.01,0.87 -0.11,1.72 -0.37,2.55 c -0.26,-0.02 -0.52,-0.04 -0.78,-0.06 c 0.01,-6 0.02,-12.01 0.01,-18.01 Z"/></g>
<g><path fill="#3ecf8e" fill-opacity="0.161" d="M 727.99,428 c 1.01,-0.36 0.85,0.89 0.99,1.44 c 0.09,11.51 0.04,23.02 -0.13,34.53 c -0.28,0.01 -0.56,0.02 -0.85,0.03 c 0,-12 0,-24 -0.01,-36 Z"/></g>
<g><path fill="#3ecf8e" fill-opacity="0.376" d="M 728,464 c 0.29,-0.01 0.57,-0.02 0.85,-0.03 c 0.18,12 0.2,24 0.05,36 c -0.23,-0.01 -0.46,-0.03 -0.69,-0.04 c -0.21,-11.97 -0.28,-23.95 -0.21,-35.93 Z"/></g>
<g><path fill="#3ecf8e" fill-opacity="0.263" d="M 726.99,283 c 0.26,0.02 0.52,0.04 0.78,0.06 c 0.15,9.14 0.25,18.28 0.32,27.44 c -0.06,2.18 -0.16,4.35 -0.31,6.52 c -0.17,0 -0.34,0 -0.52,-0.01 c -0.26,-11.33 -0.35,-22.67 -0.27,-34.01 Z"/></g>
<g><path fill="#2ba46e" fill-opacity="0.545" d="M 731.39,955.9 c 0.21,4.86 0.44,9.73 0.68,14.6 c -0.15,1.33 -0.3,2.66 -0.46,3.99 c 0.06,3.51 0.1,7.02 0.12,10.53 c -0.18,-0.02 -0.37,-0.04 -0.55,-0.05 c -0.13,-5.67 -0.14,-11.34 -0.04,-17.01 c -0.08,-0.34 -0.16,-0.68 -0.24,-1.03 c 0.27,-0.77 0.43,-1.57 0.49,-2.39 c -0.12,-2.88 -0.12,-5.76 0,-8.64 Z"/></g>
<g><path fill="#2aa06b" stroke="#2aa06b" stroke-width="0.5" d="M 994.02,535 c 32,0 64,0 96,0 c 0.1,0.72 -0.14,1.28 -0.72,1.69 c -6.29,3.07 -12.16,4.91 -15.33,11.76 c -2.65,5.9 -3.55,12.81 -9.03,16.98 c -5.13,3.56 -10.94,5.18 -13.51,11.5 c -2.56,5.8 -3.37,12.21 -8.64,16.39 c -5.76,4.03 -11.48,5.6 -14.22,12.82 c -2.44,6.07 -3.56,12.69 -9.57,16.41 c -5.68,3.13 -10.66,5.21 -13.29,11.65 c -2.54,5.2 -3.93,12.95 -8.04,17.1 c -2.56,2.33 -4.95,4.82 -7.19,7.46 c -1.71,3.63 -3.62,7.16 -5.72,10.59 c -5.16,6.53 -11.21,12.09 -18.15,16.67 c -5.31,4.29 -6.36,12.73 -9.42,18.61 c -3.28,8.5 -9.26,11.2 -16.6,15.49 c -5.31,3.47 -6.12,9.9 -8.92,15.11 c -1.97,3.35 -3.91,6.73 -5.8,10.13 c -2.18,4.34 -3.45,10.54 -7.49,13.6 c -8.23,5.77 -14.59,11.32 -20.27,19.73 c -53.77,128.21 -107.51,256.43 -161.21,384.67 c -0.29,0.88 -0.73,1.65 -1.33,2.32 c -0.38,-1.56 -0.8,-3.13 -1.27,-4.7 c -0.17,-8.65 -0.28,-17.29 -0.32,-25.94 c -0.25,-0.81 -0.35,-1.65 -0.33,-2.5 c 0.42,-7.51 0.45,-15.02 0.08,-22.55 c 0.15,-2.47 0.78,-15.8 -0.37,-17.11 c -0.22,-12.56 -0.45,-25.11 -0.69,-37.66 c -0.17,-3.25 -0.05,-6.5 0.37,-9.72 c -0.06,-4.01 -0.13,-8.01 -0.2,-12.02 c 0.02,-0.85 -0.12,-1.67 -0.43,-2.47 c -0.25,-9.65 -0.4,-19.3 -0.43,-28.96 c 0.12,-5.67 0.03,-11.35 -0.25,-17.03 c -0.02,-3.51 -0.06,-7.02 -0.12,-10.53 c 0.16,-1.33 0.31,-2.66 0.46,-3.99 c -0.24,-4.87 -0.47,-9.74 -0.68,-14.6 c -0.38,-16.29 -0.53,-32.58 -0.44,-48.87 c 1.83,-0.95 22.16,-55.64 27.91,-62.62 c 2.97,-4.32 8.33,-6.63 12.51,-9.59 c 8.96,-7.94 13.14,-28.62 21.32,-37.66 c 8.13,-6.17 15.54,-12.05 21.17,-20.72 c 6.9,-19.84 14.49,-23.55 29.16,-36.85 c 5.25,-7.6 14.08,-31.14 19.96,-36.02 c 15.1,-8.07 15.54,-13.03 21.94,-28.15 c 4.24,-8.86 19.13,-15.8 24.55,-26.43 c 3.18,-8.86 7.26,-12.76 13.33,-19.56 c 5.31,-12.83 14.35,-18.84 22.92,-29.12 c 4.49,-6.64 5.19,-16.27 11.67,-21.45 c 13.65,-7.96 14.68,-12.96 21.8,-26.21 c 5.15,-6.66 13.55,-7.64 14.83,-17.65 Z"/></g>
<g><path fill="#2ca66f" fill-opacity="0.282" d="M 734.75,1171.86 c 0.37,7.89 0.34,15.78 -0.12,23.65 c 0.03,0.86 0.15,1.69 0.36,2.52 c -1.2,0.22 -0.94,-1.89 -1,-2.52 c 0.03,-7.01 -0.03,-14.01 -0.18,-21.02 c 0.01,-0.98 0.33,-1.86 0.94,-2.63 Z"/></g>
<g><path fill="#2ba36d" fill-opacity="0.224" d="M 733.13,1110.06 c 0.2,-0.02 0.4,-0.05 0.6,-0.07 c 0.37,7.53 0.34,15.04 -0.08,22.55 c -0.02,0.85 0.08,1.69 0.33,2.5 c -0.41,0.05 -0.69,-0.12 -0.86,-0.51 c -0.1,-7.35 -0.21,-14.69 -0.31,-22.04 c -0.01,-0.83 0.1,-1.64 0.32,-2.43 Z"/></g>
<g><path fill="#30ae75" fill-opacity="0.349" d="M 737.28,1368.03 c 0.47,0.34 0.66,0.83 0.56,1.45 c 0.18,7.86 0.23,15.7 0.15,23.53 c -0.24,-0.02 -0.48,-0.05 -0.73,-0.07 c -0.16,-7.48 -0.3,-14.96 -0.41,-22.45 c -0.01,-0.85 0.13,-1.67 0.43,-2.46 Z"/></g>
<g><path fill="#2aa06b" fill-opacity="0.416" d="M 732.41,1031.01 c 0.31,0.8 0.45,1.62 0.43,2.47 c 0.07,4.01 0.14,8.01 0.2,12.02 c -0.42,3.22 -0.54,6.47 -0.37,9.72 c -0.98,-0.41 -0.58,-2.89 -0.72,-3.73 c 0.09,-6 0.06,-12 -0.09,-18 c -0.01,-0.87 0.17,-1.7 0.55,-2.48 Z"/></g>
<g><path fill="#3ecf8e" fill-opacity="0.565" d="M 0,824 c 0.24,-0.06 0.47,-0.13 0.71,-0.2 c 0.16,6.8 0.18,13.6 0.06,20.4 c -0.26,-0.07 -0.51,-0.14 -0.77,-0.21 c 0,-6.66 0,-13.32 0,-19.99 Z"/></g>
<g><path fill="#2eab73" fill-opacity="0.369" d="M 736.38,1303.07 c 0.43,0.33 0.6,0.8 0.5,1.4 c 0.14,6.2 0.17,12.38 0.1,18.54 c -0.3,0.01 -0.6,0.01 -0.89,0.02 c -0.02,-5.85 -0.09,-11.7 -0.21,-17.54 c -0.02,-0.85 0.14,-1.66 0.5,-2.42 Z"/></g>
<g><path fill="#3ecf8e" fill-opacity="0.537" d="M 728.21,499.93 c 0.23,0.01 0.46,0.03 0.69,0.04 c 0.08,5.18 0.12,10.36 0.14,15.54 c 0.01,0.84 -0.11,1.66 -0.34,2.46 c -0.58,-0.27 -0.8,-0.75 -0.67,-1.43 c -0.11,-5.54 -0.05,-11.08 0.18,-16.61 Z"/></g>
<g><path fill="#2da971" fill-opacity="0.22" d="M 735.27,1247.02 c 0.19,-0.02 0.39,-0.04 0.58,-0.07 c 0.17,6.04 0.21,12.07 0.12,18.09 c -0.4,0.05 -0.68,-0.11 -0.84,-0.5 c -0.12,-5.01 -0.21,-10.03 -0.27,-15.05 c -0.02,-0.85 0.12,-1.67 0.41,-2.47 Z"/></g>
<g><path fill="#299e69" fill-opacity="0.157" stroke="#299e69" stroke-width="0.5" stroke-opacity="0.157" d="M 731.18,984.97 c 0.18,0.01 0.37,0.03 0.55,0.05 c 0.28,5.68 0.37,11.36 0.25,17.03 c -0.71,-0.2 -1.03,-0.7 -0.97,-1.5 c 0.08,-4.35 0.02,-8.71 -0.19,-13.06 c -0.01,-0.86 0.11,-1.7 0.36,-2.52 Z"/></g>
<g><path fill="#2ba26c" fill-opacity="0.541" d="M 733.36,1092.88 c 1.15,1.31 0.52,14.64 0.37,17.11 c -0.2,0.02 -0.4,0.05 -0.6,0.07 c -0.12,-4.85 -0.19,-9.71 -0.2,-14.57 c -0.01,-0.89 0.14,-1.77 0.43,-2.61 Z"/></g>
<g><path fill="#2da871" fill-opacity="0.482" d="M 735.37,1229.87 c 0.42,0.44 0.6,0.98 0.53,1.61 c 0.16,5.17 0.14,10.33 -0.05,15.47 c -0.19,0.03 -0.39,0.05 -0.58,0.07 c -0.24,-4.83 -0.36,-9.68 -0.35,-14.53 c 0,-0.9 0.15,-1.77 0.45,-2.62 Z"/></g>
<g><path fill="#2fac73" fill-opacity="0.125" stroke="#2fac73" stroke-width="0.5" stroke-opacity="0.125" d="M 736.09,1323.03 c 0.29,-0.01 0.59,-0.01 0.89,-0.02 c 0.02,4 0.03,7.99 0.03,11.99 c -1.02,0.38 -0.9,-0.87 -1.01,-1.43 c -0.05,-3.52 -0.02,-7.03 0.09,-10.54 Z"/></g>
<g><path fill="#30ae76" fill-opacity="0.102" stroke="#30ae76" stroke-width="0.5" stroke-opacity="0.102" d="M 737.26,1392.94 c 0.25,0.02 0.49,0.05 0.73,0.07 c 0.01,2.67 0.01,5.33 0.02,8 c -1.8,0.48 -1.05,-7.03 -0.75,-8.07 Z"/></g>
</svg>
